<svg xmlns="http://www.w3.org/2000/svg" version="1.1" x="0" y="0" width="27" height="21.9" viewBox="1 2.1 27 21.9" enable-background="new 1 2.1 27 21.9" xml:space="preserve"><path fill="#DFDCDA" d="M25.2 8.1c0.3 7.7-5.4 16.4-15.7 16.4 -3.1 0-6-0.9-8.5-2.5 2.9 0.3 5.9-0.5 8.2-2.3 -2.4 0-4.5-1.6-5.2-3.8 0.9 0.2 1.7 0.1 2.5-0.1 -2.7-0.5-4.5-2.9-4.4-5.5C2.8 10.7 3.7 11 4.6 11 2.1 9.4 1.4 6.1 2.9 3.7 5.6 7 9.7 9.2 14.3 9.4c-0.8-3.4 1.8-6.8 5.4-6.8 1.6 0 3 0.7 4 1.7C25 4.1 26.1 3.6 27.2 3c-0.4 1.3-1.3 2.4-2.4 3C25.9 5.9 27 5.6 28 5.1 27.3 6.4 26.3 7.4 25.2 8.1L25.2 8.1z"/></svg>